HIERARCHY
ROOT Hips
{
  OFFSET -289.539 73.8295 721.986
  CHANNELS 6 Xposition Yposition Zposition Zrotation Xrotation Yrotation
  JOINT Spine
  {
    OFFSET 0 8 -1.18637e-05
    CHANNELS 6 Xposition Yposition Zposition Zrotation Xrotation Yrotation
    JOINT Spine1
    {
      OFFSET 0 8 0
      CHANNELS 6 Xposition Yposition Zposition Zrotation Xrotation Yrotation
      JOINT Spine2
      {
        OFFSET -2.29531e-05 8.00001 2.06593e-05
        CHANNELS 6 Xposition Yposition Zposition Zrotation Xrotation Yrotation
        JOINT Spine3
        {
          OFFSET 0 8 0
          CHANNELS 6 Xposition Yposition Zposition Zrotation Xrotation Yrotation
          JOINT Neck
          {
            OFFSET 1.38755e-05 17.0002 2.22736e-05
            CHANNELS 6 Xposition Yposition Zposition Zrotation Xrotation Yrotation
            JOINT Head
            {
              OFFSET 5.57307e-05 10.7998 0
              CHANNELS 6 Xposition Yposition Zposition Zrotation Xrotation Yrotation
              End Site
              {
                OFFSET 0 20.25 0
              }
            }
          }
          JOINT LeftShoulder
          {
            OFFSET 4.99994 17 2.82665e-05
            CHANNELS 6 Xposition Yposition Zposition Zrotation Xrotation Yrotation
            JOINT LeftShoulder2
            {
              OFFSET 6.45 0 0
              CHANNELS 6 Xposition Yposition Zposition Zrotation Xrotation Yrotation
              JOINT LeftArm
              {
                OFFSET 6.45001 0 -0.000223025
                CHANNELS 6 Xposition Yposition Zposition Zrotation Xrotation Yrotation
                JOINT LeftForeArm
                {
                  OFFSET -1.4548e-05 -32.4 -1.99574
                  CHANNELS 6 Xposition Yposition Zposition Zrotation Xrotation Yrotation
                  JOINT LeftHand
                  {
                    OFFSET -2.28427e-05 -25.65 2
                    CHANNELS 6 Xposition Yposition Zposition Zrotation Xrotation Yrotation
                    JOINT LeftHandThumb1
                    {
                      OFFSET -0.499989 -1.50002 2.64999
                      CHANNELS 6 Xposition Yposition Zposition Zrotation Xrotation Yrotation
                      JOINT LeftHandThumb2
                      {
                        OFFSET -1.66337e-05 -3.79999 3.70005
                        CHANNELS 6 Xposition Yposition Zposition Zrotation Xrotation Yrotation
                        JOINT LeftHandThumb3
                        {
                          OFFSET 0 -3.00001 2.69996
                          CHANNELS 6 Xposition Yposition Zposition Zrotation Xrotation Yrotation
                          End Site
                          {
                            OFFSET 0 -2.29997 1.79998
                          }
                        }
                      }
                    }
                    JOINT LeftHandIndex
                    {
                      OFFSET 3.32859e-05 -1.90011 1.59999
                      CHANNELS 6 Xposition Yposition Zposition Zrotation Xrotation Yrotation
                      JOINT LeftHandIndex1
                      {
                        OFFSET -1.75155e-05 -8.29995 1.90002
                        CHANNELS 6 Xposition Yposition Zposition Zrotation Xrotation Yrotation
                        JOINT LeftHandIndex2
                        {
                          OFFSET 0 -4.49994 -1.99511e-05
                          CHANNELS 6 Xposition Yposition Zposition Zrotation Xrotation Yrotation
                          JOINT LeftHandIndex3
                          {
                            OFFSET -3.72682e-05 -3.42146 0
                            CHANNELS 6 Xposition Yposition Zposition Zrotation Xrotation Yrotation
                            End Site
                            {
                              OFFSET 0 -2.59991 2.62355e-05
                            }
                          }
                        }
                      }
                    }
                    JOINT LeftHandMiddle
                    {
                      OFFSET -0.250004 -2.20006 0.399997
                      CHANNELS 6 Xposition Yposition Zposition Zrotation Xrotation Yrotation
                      JOINT LeftHandMiddle1
                      {
                        OFFSET 0 -8.29991 0.999999
                        CHANNELS 6 Xposition Yposition Zposition Zrotation Xrotation Yrotation
                        JOINT LeftHandMiddle2
                        {
                          OFFSET 0 -4.64999 0
                          CHANNELS 6 Xposition Yposition Zposition Zrotation Xrotation Yrotation
                          JOINT LeftHandMiddle3
                          {
                            OFFSET -2.10671e-05 -3.30002 1.78694e-05
                            CHANNELS 6 Xposition Yposition Zposition Zrotation Xrotation Yrotation
                            End Site
                            {
                              OFFSET -6.33299e-05 -2.70003 -1.78106e-05
                            }
                          }
                        }
                      }
                    }
                    JOINT LeftHandRing
                    {
                      OFFSET -0.500005 -2.15006 -0.800021
                      CHANNELS 6 Xposition Yposition Zposition Zrotation Xrotation Yrotation
                      JOINT LeftHandRing1
                      {
                        OFFSET 0 -7.74998 -0.199968
                        CHANNELS 6 Xposition Yposition Zposition Zrotation Xrotation Yrotation
                        JOINT LeftHandRing2
                        {
                          OFFSET 0 -3.85208 0
                          CHANNELS 6 Xposition Yposition Zposition Zrotation Xrotation Yrotation
                          JOINT LeftHandRing3
                          {
                            OFFSET 0 -3.39996 -1.6713e-05
                            CHANNELS 6 Xposition Yposition Zposition Zrotation Xrotation Yrotation
                            End Site
                            {
                              OFFSET -4.87424e-05 -2.60007 1.69863e-05
                            }
                          }
                        }
                      }
                    }
                    JOINT LeftHandPinky
                    {
                      OFFSET -0.750018 -1.75001 -1.85
                      CHANNELS 6 Xposition Yposition Zposition Zrotation Xrotation Yrotation
                      JOINT LeftHandPinky1
                      {
                        OFFSET 0 -7.15002 -1.00001
                        CHANNELS 6 Xposition Yposition Zposition Zrotation Xrotation Yrotation
                        JOINT LeftHandPinky2
                        {
                          OFFSET 0 -3.00869 1.71997e-05
                          CHANNELS 6 Xposition Yposition Zposition Zrotation Xrotation Yrotation
                          JOINT LeftHandPinky3
                          {
                            OFFSET -1.49139e-05 -2.34999 -1.0843e-05
                            CHANNELS 6 Xposition Yposition Zposition Zrotation Xrotation Yrotation
                            End Site
                            {
                              OFFSET 1.5204e-05 -2.10004 0
                            }
                          }
                        }
                      }
                    }
                  }
                }
              }
            }
          }
          JOINT RightShoulder
          {
            OFFSET -5.00008 17 0.000236837
            CHANNELS 6 Xposition Yposition Zposition Zrotation Xrotation Yrotation
            JOINT RightShoulder2
            {
              OFFSET -6.45 0 0
              CHANNELS 6 Xposition Yposition Zposition Zrotation Xrotation Yrotation
              JOINT RightArm
              {
                OFFSET -6.45002 -2.84829e-05 -1.45681e-05
                CHANNELS 6 Xposition Yposition Zposition Zrotation Xrotation Yrotation
                JOINT RightForeArm
                {
                  OFFSET -5.60661e-05 -32.4 -1.99999
                  CHANNELS 6 Xposition Yposition Zposition Zrotation Xrotation Yrotation
                  JOINT RightHand
                  {
                    OFFSET 5.60109e-05 -25.65 2
                    CHANNELS 6 Xposition Yposition Zposition Zrotation Xrotation Yrotation
                    JOINT RightHandThumb1
                    {
                      OFFSET 0.499976 -1.5 2.65001
                      CHANNELS 6 Xposition Yposition Zposition Zrotation Xrotation Yrotation
                      JOINT RightHandThumb2
                      {
                        OFFSET -2.17705e-05 -3.80005 3.70001
                        CHANNELS 6 Xposition Yposition Zposition Zrotation Xrotation Yrotation
                        JOINT RightHandThumb3
                        {
                          OFFSET 1.6995e-05 -3.00003 2.69997
                          CHANNELS 6 Xposition Yposition Zposition Zrotation Xrotation Yrotation
                          End Site
                          {
                            OFFSET -1.60067e-05 -2.3 1.8
                          }
                        }
                      }
                    }
                    JOINT RightHandIndex
                    {
                      OFFSET 7.11355e-05 -1.89997 1.6
                      CHANNELS 6 Xposition Yposition Zposition Zrotation Xrotation Yrotation
                      JOINT RightHandIndex1
                      {
                        OFFSET -8.318e-05 -8.30001 1.89996
                        CHANNELS 6 Xposition Yposition Zposition Zrotation Xrotation Yrotation
                        JOINT RightHandIndex2
                        {
                          OFFSET -2.8712e-05 -4.49998 3.95034e-05
                          CHANNELS 6 Xposition Yposition Zposition Zrotation Xrotation Yrotation
                          JOINT RightHandIndex3
                          {
                            OFFSET 4.38857e-05 -3.40001 0
                            CHANNELS 6 Xposition Yposition Zposition Zrotation Xrotation Yrotation
                            End Site
                            {
                              OFFSET -1.57098e-05 -2.6 1.73762e-05
                            }
                          }
                        }
                      }
                    }
                    JOINT RightHandMiddle
                    {
                      OFFSET 0.249982 -2.19999 0.400026
                      CHANNELS 6 Xposition Yposition Zposition Zrotation Xrotation Yrotation
                      JOINT RightHandMiddle1
                      {
                        OFFSET 0 -8.29995 1.00001
                        CHANNELS 6 Xposition Yposition Zposition Zrotation Xrotation Yrotation
                        JOINT RightHandMiddle2
                        {
                          OFFSET 0 -4.65001 -4.65061e-05
                          CHANNELS 6 Xposition Yposition Zposition Zrotation Xrotation Yrotation
                          JOINT RightHandMiddle3
                          {
                            OFFSET 4.95039e-05 -3.30002 0
                            CHANNELS 6 Xposition Yposition Zposition Zrotation Xrotation Yrotation
                            End Site
                            {
                              OFFSET -5.65843e-05 -2.69995 8.31902e-05
                            }
                          }
                        }
                      }
                    }
                    JOINT RightHandRing
                    {
                      OFFSET 0.5 -2.15002 -0.800005
                      CHANNELS 6 Xposition Yposition Zposition Zrotation Xrotation Yrotation
                      JOINT RightHandRing1
                      {
                        OFFSET 1.68627e-05 -7.75001 -0.20003
                        CHANNELS 6 Xposition Yposition Zposition Zrotation Xrotation Yrotation
                        JOINT RightHandRing2
                        {
                          OFFSET 0 -3.79999 1.11475e-05
                          CHANNELS 6 Xposition Yposition Zposition Zrotation Xrotation Yrotation
                          JOINT RightHandRing3
                          {
                            OFFSET -3.61555e-05 -3.39995 0
                            CHANNELS 6 Xposition Yposition Zposition Zrotation Xrotation Yrotation
                            End Site
                            {
                              OFFSET -2.81155e-05 -2.60003 0
                            }
                          }
                        }
                      }
                    }
                    JOINT RightHandPinky
                    {
                      OFFSET 0.750036 -1.74995 -1.84996
                      CHANNELS 6 Xposition Yposition Zposition Zrotation Xrotation Yrotation
                      JOINT RightHandPinky1
                      {
                        OFFSET -5.59957e-05 -7.15 -0.999991
                        CHANNELS 6 Xposition Yposition Zposition Zrotation Xrotation Yrotation
                        JOINT RightHandPinky2
                        {
                          OFFSET 0 -2.99999 2.12737e-05
                          CHANNELS 6 Xposition Yposition Zposition Zrotation Xrotation Yrotation
                          JOINT RightHandPinky3
                          {
                            OFFSET -2.62155e-05 -2.35002 0
                            CHANNELS 6 Xposition Yposition Zposition Zrotation Xrotation Yrotation
                            End Site
                            {
                              OFFSET 1.85028e-05 -2.09996 1.79493e-05
                            }
                          }
                        }
                      }
                    }
                  }
                }
              }
            }
          }
        }
      }
    }
  }
  JOINT LeftUpLeg
  {
    OFFSET 7.99999 0 -1.77065e-05
    CHANNELS 6 Xposition Yposition Zposition Zrotation Xrotation Yrotation
    JOINT LeftLeg
    {
      OFFSET -1.39184e-05 -45 -0.999998
      CHANNELS 6 Xposition Yposition Zposition Zrotation Xrotation Yrotation
      JOINT LeftFoot
      {
        OFFSET 1.09729e-05 -41 -2.00003
        CHANNELS 6 Xposition Yposition Zposition Zrotation Xrotation Yrotation
        JOINT LeftToeBase
        {
          OFFSET 1.17379e-05 -7.5 12.5
          CHANNELS 6 Xposition Yposition Zposition Zrotation Xrotation Yrotation
          JOINT LeftFootToe
          {
            OFFSET 0 0 4
            CHANNELS 6 Xposition Yposition Zposition Zrotation Xrotation Yrotation
            End Site
            {
              OFFSET 0 0 0
            }
          }
        }
      }
    }
  }
  JOINT RightUpLeg
  {
    OFFSET -7.99999 0 1.77065e-05
    CHANNELS 6 Xposition Yposition Zposition Zrotation Xrotation Yrotation
    JOINT RightLeg
    {
      OFFSET -1.0531e-05 -45 -0.999996
      CHANNELS 6 Xposition Yposition Zposition Zrotation Xrotation Yrotation
      JOINT RightFoot
      {
        OFFSET 0 -41.0001 -2.00008
        CHANNELS 6 Xposition Yposition Zposition Zrotation Xrotation Yrotation
        JOINT RightToeBase
        {
          OFFSET 1.1432e-05 -7.50001 12.4999
          CHANNELS 6 Xposition Yposition Zposition Zrotation Xrotation Yrotation
          JOINT RightFootToe
          {
            OFFSET 0 0 4
            CHANNELS 6 Xposition Yposition Zposition Zrotation Xrotation Yrotation
            End Site
            {
              OFFSET 0 0 0
            }
          }
        }
      }
    }
  }
}
MOTION
Frames:	2
Frame Time:	0.0111111
-291.652 72.8908 721.865 -5.41505 14.492 -171.525 -1.54449e-05 8 3.39104e-06 9.10555 13.6557 -14.5836 3.05323e-06 8 -2.13291e-05 3.45758 7.61076 -0.943167 7.34485e-06 8 3.403e-05 1.69824 3.81763 -0.413561 -5.68434e-14 8 -1.13687e-13 1.70594 3.80786 -0.411645 -0.000172248 17 -0.00025595 -4.45047 -2.84722 -2.16735 3.49616e-05 10.8 1.10897e-05 -10.6138 -6.39352 -5.41537 4.9998 17 -0.000193509 -5.02604 0.143803 8.28306 6.45 0 0 -1.33112 0.0819822 1.09546 6.45002 0.000119746 0.000350531 29.74 -32.0122 -10.6164 -4.90135e-06 -32.4 -1.99695 -0.515533 -44.7989 -21.5386 -1.03261e-05 -25.65 2 24.3068 -13.8362 -12.5195 -0.499992 -1.49998 2.64999 15.1031 -12.6287 22.0576 -4.13717e-07 -3.79998 3.70004 -0.049042 39.3307 -0.00645437 3.5402e-07 -3.00004 2.69995 0.0167835 10.3965 -0.0142097 1.35361e-05 -1.90009 1.59998 1.60672e-06 1.73417e-06 1.85957e-06 6.88047e-06 -8.29995 1.9 -0.818772 7.66001 0.0725793 -2.07565e-06 -4.49996 -5.41051e-06 -9.54572e-05 0.0172615 -0.0232878 -4.28726e-05 -3.4239 2.15166e-05 3.17428e-05 0.0156887 -0.0154064 -0.249993 -2.2 0.4 1.60672e-06 1.73417e-06 1.85957e-06 -1.49941e-05 -8.29998 0.999993 -2.75579 10.8492 0.604597 -2.4905e-09 -4.64997 1.1277e-06 -7.54547e-05 0.0146005 -0.0184982 -2.56664e-05 -3.30004 1.15377e-05 1.50362e-05 0.00487475 -0.0177666 -0.500014 -2.15006 -0.800018 1.60672e-06 1.73417e-06 1.85957e-06 -8.50461e-06 -7.75001 -0.199999 -6.69543 18.6422 2.04065 1.00437e-05 -3.84935 9.02652e-07 -1.35907 -0.00315398 0.024094 -1.27827e-05 -3.40003 1.35011e-05 -3.12085e-05 -0.00239916 0.0119186 -0.75002 -1.75003 -1.85001 1.60672e-06 1.73417e-06 1.85957e-06 -1.75934e-05 -7.15 -0.999996 -9.47247 24.414 3.3778 1.19021e-05 -3.00609 8.67009e-07 -9.20251 -0.0127219 -0.00088988 -1.80488e-05 -2.35002 5.30195e-06 5.51841e-06 -0.0113296 -0.000424733 -5.0002 16.9999 -0.000337222 -2.27281 -3.00481 2.29891 -6.45 -2.84217e-14 -1.13687e-13 -2.26629 0.802133 -3.17496 -6.44999 0.000195905 -0.000384437 -10.9046 -38.161 -5.20836 -7.16054e-05 -32.4 -1.99994 -15.8693 -44.3029 -39.0968 5.84589e-05 -25.65 1.99999 -13.3171 2.97428 -11.9083 0.499998 -1.50004 2.65002 113.373 -70.5896 133.775 -5.89644e-05 -3.80006 3.70003 0.302528 29.5245 0.048476 -8.6633e-06 -3 2.69999 -1.36879 65.8388 1.1098 6.03382e-05 -1.89997 1.6 2.46938e-06 1.63908e-06 -1.69459e-06 -6.11137e-05 -8.30001 1.89996 0.0796045 2.39117 -0.00345004 -3.22397e-05 -4.49998 4.85188e-05 0.000165692 -0.240111 -0.0655213 4.50079e-05 -3.39999 -1.6755e-05 -2.87088e-06 -0.225678 0.207047 0.249969 -2.19998 0.400045 2.46938e-06 1.63908e-06 -1.69459e-06 2.38203e-05 -8.29996 0.999989 0.871923 4.60296 -0.0892978 -1.20684e-05 -4.65003 -2.47509e-05 3.39898 -0.626071 -0.0681802 3.49888e-05 -3.29996 -1.01941e-05 -9.71423e-08 -0.607779 -0.0430997 0.499994 -2.15003 -0.799997 2.46938e-06 1.63908e-06 -1.69459e-06 3.32831e-05 -7.75001 -0.200036 0.883536 7.21875 -0.184655 4.06855e-06 -3.8 1.66202e-05 9.18593 -0.0689445 0.0599435 -2.5278e-05 -3.39995 -9.48401e-06 8.16353 -0.566309 0.0610955 0.750031 -1.74996 -1.84996 2.46938e-06 1.63908e-06 -1.69459e-06 -3.73632e-05 -7.15 -0.999996 1.20015 9.38501 -0.276673 -5.09541e-06 -2.99998 2.36568e-05 0.00180871 0.0965674 -0.047062 -1.51668e-05 -2.35003 -1.12032e-05 -0.000541164 0.0958022 -0.621728 8.00001 7.23545e-08 -1.02509e-05 19.2712 -40.8643 36.2398 6.78584e-06 -45 -1.00005 0.277342 47.2623 -15.763 4.7885e-06 -41 -2.00001 5.46963 12.2154 12.1879 -1.91192e-05 -7.5 12.5 -1.80517e-07 -2.94939e-06 -3.30391e-06 1.13687e-13 0 4 -0.325674 -11.2538 29.2095 -8.00001 -7.23545e-08 1.02509e-05 -10.8987 -48.0526 -5.63901 8.32895e-06 -45 -1.00001 -4.34116 69.3906 -1.11854 -5.4844e-06 -41 -2.00006 2.98961 11.5272 9.64718 2.94971e-05 -7.5 12.5 4.46862e-05 -16.8298 0.00154608 0 -1.77636e-15 4 8.27524 16.9798 8.44283 
-291.651 72.8769 721.893 -5.46881 14.711 -171.567 -1.54449e-05 8 3.39104e-06 9.039 13.7435 -14.6201 3.05323e-06 8 -2.13291e-05 3.45186 7.59874 -0.923136 7.34485e-06 8 3.403e-05 1.69755 3.81143 -0.403822 0 8 0 1.70508 3.80125 -0.402327 -0.000172248 17 -0.00025595 -4.44752 -2.79601 -2.14644 3.49616e-05 10.8 1.10897e-05 -10.6021 -6.27689 -5.3594 4.9998 17 -0.000193509 -5.0236 0.140578 8.2544 6.45 0 0 -1.32973 0.0856195 1.08592 6.45002 0.000119746 0.000350531 29.8555 -31.7994 -10.4684 -4.90135e-06 -32.4 -1.99695 -0.836003 -44.7968 -21.9549 -1.03261e-05 -25.65 2 24.4154 -14.0289 -12.4274 -0.499992 -1.49998 2.64999 14.6557 -13.0359 21.6995 -4.13717e-07 -3.79998 3.70004 -0.0474814 39.807 -0.00882734 3.5402e-07 -3.00004 2.69995 0.0246421 11.1105 -0.0142433 1.35361e-05 -1.90009 1.59998 1.60672e-06 1.73417e-06 1.85957e-06 6.88047e-06 -8.29995 1.9 -0.8182 7.65271 0.0725824 -2.07565e-06 -4.49996 -5.41051e-06 -9.54572e-05 0.0172615 -0.0232878 -4.28726e-05 -3.4239 2.15166e-05 3.17428e-05 0.0156887 -0.0154064 -0.249993 -2.2 0.4 1.60672e-06 1.73417e-06 1.85957e-06 -1.49941e-05 -8.29998 0.999993 -2.73131 10.8147 0.597843 -2.4905e-09 -4.64997 1.1277e-06 -7.54547e-05 0.0146005 -0.0184982 -2.56664e-05 -3.30004 1.15377e-05 1.4562e-05 0.00334552 -0.0177666 -0.500014 -2.15006 -0.800018 1.60672e-06 1.73417e-06 1.85957e-06 -8.50461e-06 -7.75001 -0.199999 -6.62015 18.5632 2.01345 1.00437e-05 -3.84935 9.02652e-07 -1.35907 -0.00315398 0.024094 -1.27827e-05 -3.40003 1.35011e-05 -3.12085e-05 -0.00239916 0.0119186 -0.75002 -1.75003 -1.85001 1.60672e-06 1.73417e-06 1.85957e-06 -1.75934e-05 -7.15 -0.999996 -9.35565 24.2861 3.32661 1.19021e-05 -3.00609 8.6701e-07 -9.20251 -0.0127219 -0.00088988 -1.80488e-05 -2.35002 5.30195e-06 5.51841e-06 -0.0113296 -0.000424733 -5.0002 16.9999 -0.000337222 -2.2108 -3.02941 2.40098 -6.45 0 -1.13687e-13 -2.27238 0.802476 -3.19616 -6.44999 0.000195905 -0.000384437 -10.973 -37.9789 -5.20071 -7.16054e-05 -32.4 -1.99994 -15.8821 -44.2185 -39.0499 5.84589e-05 -25.65 1.99999 -13.1075 3.07717 -11.8141 0.499998 -1.50004 2.65002 114.201 -70.7824 134.755 -5.89644e-05 -3.80006 3.70003 0.3027 29.3475 0.0483916 -8.6633e-06 -3 2.69999 -1.36664 65.7933 1.10784 6.03382e-05 -1.89997 1.6 2.46938e-06 1.63908e-06 -1.69459e-06 -6.11137e-05 -8.30001 1.89996 0.0762747 2.34408 -0.00344993 -3.22397e-05 -4.49998 4.85188e-05 0.000165747 -0.240111 -0.0655083 4.50079e-05 -3.39999 -1.6755e-05 -2.87088e-06 -0.225678 0.207047 0.249969 -2.19998 0.400045 2.46938e-06 1.63908e-06 -1.69459e-06 2.38203e-05 -8.29996 0.999989 0.869025 4.55302 -0.0892916 -1.20684e-05 -4.65003 -2.47509e-05 3.39898 -0.626385 -0.0680136 3.49888e-05 -3.29996 -1.01941e-05 -9.71423e-08 -0.607779 -0.0430997 0.499994 -2.15003 -0.799997 2.46938e-06 1.63908e-06 -1.69459e-06 3.32831e-05 -7.75001 -0.200036 0.869645 7.15207 -0.181318 4.06856e-06 -3.8 1.66202e-05 9.16442 -0.0692048 0.0602333 -2.5278e-05 -3.39995 -9.48401e-06 8.14637 -0.568289 0.0610955 0.750031 -1.74996 -1.84996 2.46938e-06 1.63908e-06 -1.69459e-06 -3.73632e-05 -7.15 -0.999996 1.18145 9.31289 -0.271632 -5.09541e-06 -2.99998 2.36568e-05 0.00180871 0.0965674 -0.047062 -1.51668e-05 -2.35003 -1.12032e-05 -0.000538138 0.0958022 -0.623538 8.00001 7.23545e-08 -1.02509e-05 19.1577 -40.6999 36.0006 6.78584e-06 -45 -1.00005 0.263138 47.3194 -15.7345 4.7885e-06 -41 -2.00001 5.39494 12.1712 12.2033 -1.91192e-05 -7.5 12.5 -1.80517e-07 -2.94939e-06 -3.30391e-06 0 0 4 -0.265056 -11.2308 29.3547 -8.00001 -7.23545e-08 1.02509e-05 -10.8214 -47.8729 -5.52633 8.32895e-06 -45 -1.00001 -4.38916 69.3887 -1.04843 -5.4844e-06 -41 -2.00006 2.98847 11.5524 9.63821 2.94971e-05 -7.5 12.5 4.45074e-05 -16.8235 0.00154603 -5.68434e-14 0 4 8.27806 16.9632 8.44216 
